<svg xmlns="http://www.w3.org/2000/svg" viewBox="0 0 100 100">
  <rect width="100" height="100" fill="#F5F0E8"/>
  <!-- Open Book Icon -->
  <path d="M 20 30 L 20 75 L 48 70 L 48 25 Q 48 25 35 25 Q 20 25 20 30 Z" 
        fill="#B87333" stroke="#8B5A2B" stroke-width="1.5"/>
  <path d="M 52 25 L 52 70 L 80 75 L 80 30 Q 80 25 65 25 Q 52 25 52 25 Z" 
        fill="#B87333" stroke="#8B5A2B" stroke-width="1.5"/>
  <!-- Center binding -->
  <line x1="50" y1="25" x2="50" y2="72" stroke="#8B5A2B" stroke-width="2"/>
  <!-- Page lines -->
  <line x1="27" y1="35" x2="43" y2="33" stroke="#8B5A2B" stroke-width="0.8" opacity="0.5"/>
  <line x1="27" y1="42" x2="43" y2="40" stroke="#8B5A2B" stroke-width="0.8" opacity="0.5"/>
  <line x1="27" y1="49" x2="43" y2="47" stroke="#8B5A2B" stroke-width="0.8" opacity="0.5"/>
  <line x1="57" y1="33" x2="73" y2="35" stroke="#8B5A2B" stroke-width="0.8" opacity="0.5"/>
  <line x1="57" y1="40" x2="73" y2="42" stroke="#8B5A2B" stroke-width="0.8" opacity="0.5"/>
  <line x1="57" y1="47" x2="73" y2="49" stroke="#8B5A2B" stroke-width="0.8" opacity="0.5"/>
</svg>

